{"title":"Supergirl S01E06 Red Faced 1080p HDTV X264-DIMENSION[rartv]","uid":12879726,"size":2465268049,"categoryP":"video","categoryS":"hd___tv_shows","magnet":"?xt=urn:btih:e736144240b44b7805bc0a64bdf552c0f706b12f&amp;dn=Supergirl+S01E06+Red+Faced+1080p+HDTV+X264-DIMENSION%5Brartv%5D&amp;tr=udp%3A%2F%2Ftracker.leechers-paradise.org%3A6969&amp;tr=udp%3A%2F%2Fzer0day.ch%3A1337&amp;tr=udp%3A%2F%2Fopen.demonii.com%3A1337&amp;tr=udp%3A%2F%2Ftracker.coppersurfer.tk%3A6969&amp;tr=udp%3A%2F%2Fexodus.desync.com%3A6969","seeders":0,"leechers":1,"uploader":"cheerfulcaca","files":3,"time":1448997141,"description":"SEASON 1, EPISODE 6 &quot;RED FACED&quot; SYNOPSIS:\r\n\r\nStress and anger get the better of Kara when she goes too far during a training exercise with Red Tornado, a military cyborg commissioned by Lucy Lane's father, General Sam Lane. Elsewhere, Cat's tough exterior is shaken by a visit from her judgmental mother, Katherine; at the same time, Alex enlists Winn to investigate her father's mysterious death.\r\n\r\n\r\nSERIES INFO:\r\n\r\n6.3/10 IMDb\r\n7.6/10 TV.com\r\n\r\nAt 12 years old, Kara Zor-El escapes doom on planet Krypton to find protection on Earth with the Danver family, where she grows up in the shadow of her foster sister, Alex, and learns to hide the extraordinary powers she shares with her cousin, Superman. Now an adult living in National City and working for media mogul Cat Grant, Kara finds her days of keeping her abilities a secret are over when super-secret agency head Hank Henshaw enlists her to help protect the city's citizens from threats. Finally coming into her own, Kara must juggle her new responsibilities with her very human relationships.\r\n\r\n\r\nMEDIA INFO:\r\n\r\nGeneral:\r\n\r\nUnique ID                                : 229878679441645748812801846750401829684 (0xACF105F27C4D9ED18151C4EA7BB09B34)\r\nComplete name                            : Supergirl.S01E06.1080p.HDTV.X264-DIMENSION.mkv\r\nFormat                                   : Matroska\r\nFormat version                           : Version 4 / Version 2\r\nFile size                                : 2.30 GiB\r\nDuration                                 : 44mn 33s\r\nOverall bit rate                         : 7 378 Kbps\r\nEncoded date                             : UTC 2015-12-01 18:03:49\r\nWriting application                      : mkvmerge v8.6.1 ('Flying') 64bit\r\nWriting library                          : libebml v1.3.3 + libmatroska v1.4.4\r\n\r\nVideo:\r\n\r\nID                                       : 2\r\nFormat                                   : AVC\r\nFormat/Info                              : Advanced Video Codec\r\nFormat profile                           :   \r\nFormat settings, CABAC                   : Yes\r\nFormat settings, ReFrames                : 4 frames\r\nCodec ID                                 : V_MPEG4/ISO/AVC\r\nDuration                                 : 44mn 33s\r\nBit rate                                 : 6 992 Kbps\r\nWidth                                    : 1 920 pixels\r\nHeight                                   : 1 080 pixels\r\nDisplay aspect ratio                     : 16:9\r\nFrame rate mode                          : Constant\r\nFrame rate                               : 23.976 (24000/1001) fps\r\nColor space                              : YUV\r\nChroma subsampling                       : 4:2:0\r\nBit depth                                : 8 bits\r\nScan type                                : Progressive\r\nBits/(Pixel*Frame)                       : 0.141\r\nStream size                              : 2.18 GiB (95%)\r\nWriting library                          : x264 core 148 r2638 7599210\r\nEncoding settings                        : cabac=1 / ref=4 / deblock=1:-3:-3 / analyse=0x3:0x133 / me=umh / subme=11 / psy=1 / psy_rd=1.00:0.00 / mixed_ref=1 / me_range=32 / chroma_me=1 / trellis=2 / 8x8dct=1 / cqm=0 / deadzone=21,11 / fast_pskip=0 / chroma_qp_offset=-2 / threads=16 / lookahead_threads=1 / sliced_threads=0 / nr=0 / decimate=1 / interlaced=0 / bluray_compat=0 / constrained_intra=0 / bframes=5 / b_pyramid=2 / b_adapt=2 / b_bias=0 / direct=3 / weightb=1 / open_gop=0 / weightp=2 / keyint=250 / keyint_min=23 / scenecut=40 / intra_refresh=0 / rc_lookahead=60 / rc=crf / mbtree=1 / crf=17.0 / qcomp=0.60 / qpmin=0 / qpmax=69 / qpstep=4 / ip_ratio=1.40 / aq=1:1.00\r\nLanguage                                 : English\r\nDefault                                  : Yes\r\nForced                                   : No\r\nColor range                              : Limited\r\nMatrix coefficients                      : BT.709\r\n\r\nAudio:\r\n\r\nID                                       : 3\r\nFormat                                   : AC-3\r\nFormat/Info                              : Audio Coding 3\r\nMode extension                           : CM (complete main)\r\nFormat settings, Endianness              : Big\r\nCodec ID                                 : A_AC3\r\nDuration                                 : 44mn 33s\r\nBit rate mode                            : Constant\r\nBit rate                                 : 384 Kbps\r\nChannel(s)                               : 6 channels\r\nChannel positions                        : Front: L C R, Side: L R, LFE\r\nSampling rate                            : 48.0 KHz\r\nFrame rate                               : 31.250 fps (1536 spf)\r\nCompression mode                         : Lossy\r\nStream size                              : 122 MiB (5%)\r\nDefault                                  : Yes\r\nForced                                   : No\r\n\r\nText:\r\n\r\nID                                       : 1\r\nFormat                                   : UTF-8\r\nCodec ID                                 : S_TEXT/UTF8\r\nCodec ID/Info                            : UTF-8 Plain Text\r\nDuration                                 : 43mn 50s\r\nBit rate                                 : 69 bps\r\nCount of elements                        : 681\r\nStream size                              : 22.5 KiB (0%)\r\nDefault                                  : Yes\r\nForced                                   : No\r\n\r\n\r\nDOWNLOADED FROM:  https://rarbg.to","torrent":{"xt":"urn:btih:e736144240b44b7805bc0a64bdf552c0f706b12f","amp;dn":"Supergirl+S01E06+Red+Faced+1080p+HDTV+X264-DIMENSION%5Brartv%5D","amp;tr":["udp%3A%2F%2Ftracker.leechers-paradise.org%3A6969","udp%3A%2F%2Fzer0day.ch%3A1337","udp%3A%2F%2Fopen.demonii.com%3A1337","udp%3A%2F%2Ftracker.coppersurfer.tk%3A6969","udp%3A%2F%2Fexodus.desync.com%3A6969"],"infoHash":"e736144240b44b7805bc0a64bdf552c0f706b12f","infoHashBuffer":{"type":"Buffer","data":[231,54,20,66,64,180,75,120,5,188,10,100,189,245,82,192,247,6,177,47]},"announce":[],"urlList":[]}}